<svg viewBox="0 0 63 56" xmlns="http://www.w3.org/2000/svg" xmlns:xlink="http://www.w3.org/1999/xlink" width="63.000000" height="56.000000" fill="none" customFrame="#000000">
	<g id="Logo_light">
		<g id="Icon">
			<rect id="bg" width="42.000000" height="56.000000" x="0.000000" y="0.000000" fill="rgb(251,183,49)" />
			<rect id="bg" width="42.000000" height="56.000000" x="0.000000" y="0.000000" stroke="rgb(243,115,53)" stroke-opacity="0" stroke-width="0.000000" />
			<g id="burger">
				<path id="Shape" d="M40.5 7L43.5 7C54.2644 7.01239 62.9876 15.7356 63 26.5C63 27.3284 62.3284 28 61.5 28L22.5 28C21.6716 28 21 27.3284 21 26.5C21.0124 15.7356 29.7356 7.01239 40.5 7ZM40.4999 9.99996C31.9723 10.0102 24.8533 16.5086 24.0675 25L59.9324 25C59.1467 16.5085 52.0277 10.0102 43.5 9.99996L40.4999 9.99996Z" fill="rgb(255,255,255)" fill-rule="evenodd" />
				<path id="Shape" d="M61.5001 37.1084L55.5 37.1084C55.1754 37.1084 54.8596 37.2127 54.6 37.4057L49.5 41.1961L44.3999 37.4057C44.1403 37.2127 43.8245 37.1084 43.4999 37.1084L22.5 37.1084C21.6716 37.1084 21 37.7739 21 38.5949L21 41.5677C21.0049 45.6704 24.3599 48.9951 28.5 49L55.5 49C59.6401 48.9951 62.9951 45.6704 63 41.5677L63 38.5949C63.0001 37.7739 62.3285 37.1084 61.5001 37.1084ZM55.5 46.0271C57.9853 46.0271 60 44.0306 60 41.5677L60 40.0813L55.9995 40.0813L50.4 44.2434C49.8667 44.6397 49.1333 44.6397 48.6 44.2434L43.0005 40.0813L24 40.0813L24 41.5677C24 44.0306 26.0147 46.0271 28.5 46.0271L55.5 46.0271Z" fill="rgb(255,255,255)" fill-rule="evenodd" />
				<path id="Path" d="M61.5 31.0361L22.5 31.0361C21.6716 31.0361 21 31.7158 21 32.5542C21 33.3925 21.6716 34.0723 22.5 34.0723L61.5 34.0723C62.3284 34.0723 63 33.3926 63 32.5542C63 31.7157 62.3284 31.0361 61.5 31.0361Z" fill="rgb(255,255,255)" fill-rule="nonzero" />
				<path id="Path" d="M34.4097 15.8555C33.5713 15.8555 32.8916 16.5351 32.8916 17.3735L32.8916 18.8916C32.8916 19.73 33.5713 20.4097 34.4097 20.4097C35.2481 20.4097 35.9277 19.73 35.9277 18.8916L35.9277 17.3735C35.9277 16.5351 35.2481 15.8555 34.4097 15.8555Z" fill="rgb(255,255,255)" fill-rule="nonzero" />
				<path id="Path" d="M42 15.8555C41.1616 15.8555 40.4819 16.5351 40.4819 17.3735L40.4819 18.8916C40.4819 19.73 41.1616 20.4097 42 20.4097C42.8384 20.4097 43.5181 19.7299 43.5181 18.8915L43.5181 17.3735C43.5181 16.5351 42.8384 15.8555 42 15.8555Z" fill="rgb(255,255,255)" fill-rule="nonzero" />
				<path id="Path" d="M49.5903 15.8555C48.7519 15.8555 48.0723 16.5351 48.0723 17.3735L48.0723 18.8916C48.0723 19.73 48.7519 20.4097 49.5903 20.4097C50.4288 20.4097 51.1084 19.73 51.1084 18.8916L51.1084 17.3735C51.1083 16.5351 50.4287 15.8555 49.5903 15.8555Z" fill="rgb(255,255,255)" fill-rule="nonzero" />
			</g>
		</g>
	</g>
</svg>
