<svg viewBox="0 0 175.695 56" xmlns="http://www.w3.org/2000/svg" xmlns:xlink="http://www.w3.org/1999/xlink" width="175.695251" height="56.000000" fill="none" customFrame="#000000">
	<g id="Logo">
		<g id="Icon">
			<rect id="bg" width="42.000000" height="56.000000" x="0.000000" y="0.000000" fill="rgb(251,183,49)" />
			<rect id="bg" width="42.000000" height="56.000000" x="0.000000" y="0.000000" stroke="rgb(243,115,53)" stroke-opacity="0" stroke-width="0.000000" />
			<g id="burger">
				<path id="Shape" d="M40.5 7L43.5 7C54.2644 7.01239 62.9876 15.7356 63 26.5C63 27.3284 62.3284 28 61.5 28L22.5 28C21.6716 28 21 27.3284 21 26.5C21.0124 15.7356 29.7356 7.01239 40.5 7ZM40.4999 9.99996C31.9723 10.0102 24.8533 16.5086 24.0675 25L59.9324 25C59.1467 16.5085 52.0277 10.0102 43.5 9.99996L40.4999 9.99996Z" fill="rgb(68,55,55)" fill-rule="evenodd" />
				<path id="Shape" d="M61.5001 37.1084L55.5 37.1084C55.1754 37.1084 54.8596 37.2127 54.6 37.4057L49.5 41.1961L44.3999 37.4057C44.1403 37.2127 43.8245 37.1084 43.4999 37.1084L22.5 37.1084C21.6716 37.1084 21 37.7739 21 38.5949L21 41.5677C21.0049 45.6704 24.3599 48.9951 28.5 49L55.5 49C59.6401 48.9951 62.9951 45.6704 63 41.5677L63 38.5949C63.0001 37.7739 62.3285 37.1084 61.5001 37.1084ZM55.5 46.0271C57.9853 46.0271 60 44.0306 60 41.5677L60 40.0813L55.9995 40.0813L50.4 44.2434C49.8667 44.6397 49.1333 44.6397 48.6 44.2434L43.0005 40.0813L24 40.0813L24 41.5677C24 44.0306 26.0147 46.0271 28.5 46.0271L55.5 46.0271Z" fill="rgb(68,55,55)" fill-rule="evenodd" />
				<path id="Path" d="M61.5 31.0361L22.5 31.0361C21.6716 31.0361 21 31.7158 21 32.5542C21 33.3925 21.6716 34.0723 22.5 34.0723L61.5 34.0723C62.3284 34.0723 63 33.3926 63 32.5542C63 31.7157 62.3284 31.0361 61.5 31.0361Z" fill="rgb(68,55,55)" fill-rule="nonzero" />
				<path id="Path" d="M34.4097 15.8555C33.5713 15.8555 32.8916 16.5351 32.8916 17.3735L32.8916 18.8916C32.8916 19.73 33.5713 20.4097 34.4097 20.4097C35.2481 20.4097 35.9277 19.73 35.9277 18.8916L35.9277 17.3735C35.9277 16.5351 35.2481 15.8555 34.4097 15.8555Z" fill="rgb(68,55,55)" fill-rule="nonzero" />
				<path id="Path" d="M42 15.8555C41.1616 15.8555 40.4819 16.5351 40.4819 17.3735L40.4819 18.8916C40.4819 19.73 41.1616 20.4097 42 20.4097C42.8384 20.4097 43.5181 19.7299 43.5181 18.8915L43.5181 17.3735C43.5181 16.5351 42.8384 15.8555 42 15.8555Z" fill="rgb(68,55,55)" fill-rule="nonzero" />
				<path id="Path" d="M49.5903 15.8555C48.7519 15.8555 48.0723 16.5351 48.0723 17.3735L48.0723 18.8916C48.0723 19.73 48.7519 20.4097 49.5903 20.4097C50.4288 20.4097 51.1084 19.73 51.1084 18.8916L51.1084 17.3735C51.1083 16.5351 50.4287 15.8555 49.5903 15.8555Z" fill="rgb(68,55,55)" fill-rule="nonzero" />
			</g>
		</g>
		<path id="Burgos" d="M129.349 35.1839C130.677 35.9039 132.293 36.2639 134.197 36.2639C135.285 36.2639 136.373 36.1519 137.461 35.9279C138.549 35.7039 139.509 35.3839 140.341 34.9679L140.341 26.6639L133.621 26.6639L133.621 29.3519L137.269 29.3519L137.269 32.6639C136.261 32.9519 135.301 33.0959 134.389 33.0959C132.677 33.0959 131.381 32.6319 130.501 31.7039Q129.205 30.3119 129.205 27.5999Q129.205 24.9119 130.477 23.4959Q130.626 23.3301 130.793 23.1834Q132.069 22.0559 134.341 22.0559Q135.685 22.0559 136.837 22.4159C137.605 22.6399 138.357 23.0239 139.093 23.5679L140.293 20.6639C139.621 20.1039 138.749 19.6559 137.677 19.3199Q136.093 18.8159 134.317 18.8159C132.429 18.8159 130.813 19.1759 129.469 19.8959C128.125 20.6159 127.093 21.6319 126.373 22.9439C125.669 24.2559 125.317 25.8079 125.317 27.5999C125.317 29.3439 125.661 30.8639 126.349 32.1599Q126.803 33.0143 127.437 33.7018L127.438 33.7028Q128.247 34.5789 129.349 35.1839ZM151.482 36.2639C149.818 36.2639 148.354 35.9039 147.09 35.1839C145.842 34.4479 144.866 33.4319 144.162 32.1359Q143.13 30.1679 143.13 27.5279Q143.13 24.8879 144.162 22.9439C144.866 21.6319 145.842 20.6159 147.09 19.8959C148.338 19.1759 149.802 18.8159 151.482 18.8159C153.162 18.8159 154.626 19.1759 155.874 19.8959C157.138 20.6159 158.114 21.6319 158.802 22.9439C159.506 24.2399 159.858 25.7599 159.858 27.5039C159.858 29.2639 159.506 30.7999 158.802 32.1119C158.114 33.4239 157.138 34.4479 155.874 35.1839C154.626 35.9039 153.162 36.2639 151.482 36.2639ZM165.015 35.7599C166.199 36.0959 167.455 36.2639 168.783 36.2639C170.191 36.2639 171.407 36.0479 172.431 35.6159C173.471 35.1679 174.271 34.5519 174.831 33.7679C175.407 32.9679 175.695 32.0399 175.695 30.9839C175.695 28.6159 174.143 27.0959 171.039 26.4239L168.327 25.8479Q167.079 25.5839 166.575 25.1519C166.239 24.8639 166.071 24.4879 166.071 24.0239C166.071 23.3999 166.343 22.8959 166.887 22.5119C167.447 22.1119 168.231 21.9119 169.239 21.9119C171.111 21.9119 172.703 22.4319 174.015 23.4719L175.095 20.7359Q174.087 19.8239 172.551 19.3199Q171.015 18.8159 169.263 18.8159C167.903 18.8159 166.703 19.0399 165.663 19.4879C164.639 19.9359 163.839 20.5679 163.263 21.3839C162.687 22.1839 162.399 23.1199 162.399 24.1919C162.399 26.6879 163.911 28.2559 166.935 28.8959L169.647 29.4719C170.527 29.6639 171.143 29.8959 171.495 30.1679C171.847 30.4399 172.023 30.8079 172.023 31.2719C172.023 31.8159 171.767 32.2719 171.255 32.6399C170.759 32.9919 169.935 33.1679 168.783 33.1679Q167.429 33.1679 166.162 32.8346Q165.948 32.7781 165.735 32.7119C164.775 32.4079 163.919 31.9919 163.167 31.4639L162.087 34.3919C162.871 34.9679 163.847 35.4239 165.015 35.7599ZM74.704 35.9999L74.704 19.0799L82.456 19.0799Q85.168 19.0799 86.632 20.2559Q87.2341 20.7318 87.5926 21.3492L87.5926 21.3492Q88.12 22.2575 88.12 23.4719Q88.12 24.5908 87.6543 25.4602L87.6542 25.4602Q87.5605 25.6351 87.448 25.7999Q87.3081 25.9997 87.1454 26.1787L87.1454 26.1788Q86.5262 26.8598 85.576 27.2399C86.536 27.5119 87.272 27.9919 87.784 28.6799Q87.9056 28.8384 88.0086 29.0083L88.0088 29.0086L88.0089 29.0087L88.0089 29.0087L88.0089 29.0087Q88.576 29.9445 88.576 31.2239Q88.576 32.6641 87.9304 33.7033L87.9303 33.7036Q87.5647 34.292 86.992 34.7519C85.952 35.5839 84.528 35.9999 82.72 35.9999L74.704 35.9999ZM93.2555 34.5222Q95.1445 36.2639 98.6395 36.2639Q102.141 36.2639 103.985 34.5157L103.986 34.5151L103.986 34.5148Q104.037 34.466 104.087 34.4159Q104.112 34.3913 104.136 34.3663Q105.935 32.5193 105.935 28.9199L105.935 19.0799L102.263 19.0799L102.263 28.9439Q102.263 31.3006 101.096 32.3196Q100.207 33.0959 98.6395 33.0959C97.4555 33.0959 96.5515 32.7519 95.9275 32.0639C95.3035 31.3599 94.9915 30.3199 94.9915 28.9439L94.9915 19.0799L91.2715 19.0799L91.2715 28.9199C91.2715 31.3519 91.8955 33.1839 93.1435 34.4159Q93.1988 34.4698 93.2555 34.5222ZM109.227 35.9999L109.227 19.0799L116.955 19.0799C118.843 19.0799 120.299 19.5359 121.323 20.4479C122.347 21.3599 122.859 22.6319 122.859 24.2639C122.859 25.5279 122.531 26.5839 121.875 27.4319C121.235 28.2639 120.315 28.8319 119.115 29.1359C119.963 29.3919 120.659 30.0079 121.203 30.9839L123.939 35.9999L119.835 35.9999L116.907 30.5999Q116.547 29.9519 116.019 29.7119C115.667 29.5359 115.251 29.4479 114.771 29.4479L112.947 29.4479L112.947 35.9999L109.227 35.9999ZM78.256 26.0399L81.808 26.0399Q83.5224 26.0399 84.1625 25.2106L84.1626 25.2106Q84.544 24.7165 84.544 23.9279Q84.544 23.1594 84.1734 22.6738L84.1734 22.6738Q83.537 21.8399 81.808 21.8399L78.256 21.8399L78.256 26.0399ZM112.947 26.7599L116.283 26.7599Q118.113 26.7599 118.827 25.8676Q119.283 25.2965 119.283 24.3599Q119.283 23.4441 118.838 22.8812Q118.127 21.9839 116.283 21.9839L112.947 21.9839L112.947 26.7599ZM151.482 33.0959C152.89 33.0959 153.986 32.6079 154.77 31.6319C155.57 30.6399 155.97 29.2719 155.97 27.5279C155.97 25.7679 155.578 24.4079 154.794 23.4479C154.01 22.4719 152.906 21.9839 151.482 21.9839Q150.161 21.9839 149.196 22.5694Q148.635 22.9098 148.194 23.4479C147.41 24.4079 147.018 25.7679 147.018 27.5279C147.018 29.2719 147.41 30.6399 148.194 31.6319Q148.635 32.1701 149.196 32.5104Q150.161 33.0959 151.482 33.0959ZM78.256 33.2399L82.216 33.2399Q83.656 33.2399 84.328 32.6879Q84.4426 32.5938 84.5377 32.4828L84.5377 32.4828Q85 31.9435 85 31.0079Q85 30.1184 84.5637 29.5872L84.5637 29.5871Q84.4585 29.4591 84.328 29.3519Q83.656 28.7999 82.216 28.7999L78.256 28.7999L78.256 33.2399Z" fill="rgb(68,55,55)" fill-rule="evenodd" />
	</g>
</svg>
